<svg width="27" height="20" viewBox="0 0 27 20" fill="none" xmlns="http://www.w3.org/2000/svg">
<g clip-path="url(#clip0_15_12851)">
<path fill-rule="evenodd" clip-rule="evenodd" d="M2.89529 3.03668H24.8422C25.1641 3.03668 25.4728 2.90882 25.7004 2.68122C25.928 2.45361 26.0558 2.14491 26.0558 1.82303C26.0558 1.50115 25.928 1.19244 25.7004 0.964839C25.4728 0.737235 25.1641 0.609375 24.8422 0.609375H2.89529C2.57341 0.609375 2.26471 0.737235 2.03711 0.964839C1.80951 1.19244 1.68164 1.50115 1.68164 1.82303C1.68164 2.14491 1.80951 2.45361 2.03711 2.68122C2.26471 2.90882 2.57341 3.03668 2.89529 3.03668ZM24.8422 8.7004H7.54763C7.22575 8.7004 6.91705 8.82826 6.68945 9.05586C6.46184 9.28347 6.33398 9.59217 6.33398 9.91405C6.33398 10.2359 6.46184 10.5446 6.68945 10.7722C6.91705 10.9998 7.22575 11.1277 7.54763 11.1277H24.8422C25.1641 11.1277 25.4728 10.9998 25.7004 10.7722C25.928 10.5446 26.0558 10.2359 26.0558 9.91405C26.0558 9.59217 25.928 9.28347 25.7004 9.05586C25.4728 8.82826 25.1641 8.7004 24.8422 8.7004ZM24.8422 16.7914H2.89529C2.57341 16.7914 2.26471 16.9193 2.03711 17.1469C1.80951 17.3745 1.68164 17.6832 1.68164 18.0051C1.68164 18.327 1.80951 18.6357 2.03711 18.8633C2.26471 19.0909 2.57341 19.2187 2.89529 19.2187H24.8422C25.1641 19.2187 25.4728 19.0909 25.7004 18.8633C25.928 18.6357 26.0558 18.327 26.0558 18.0051C26.0558 17.6832 25.928 17.3745 25.7004 17.1469C25.4728 16.9193 25.1641 16.7914 24.8422 16.7914Z" fill="#FFFDFA"/>
</g>
<defs>
<clipPath id="clip0_15_12851">
<rect width="26.7004" height="18.6094" fill="white" transform="translate(0.0136719 0.609375)"/>
</clipPath>
</defs>
</svg>
